<?xml version="1.0" encoding="utf-8"?>
<!-- Generator: Adobe Illustrator 25.4.1, SVG Export Plug-In . SVG Version: 6.00 Build 0)  -->
<svg version="1.1" id="Layer_1" xmlns="http://www.w3.org/2000/svg" xmlns:xlink="http://www.w3.org/1999/xlink" x="0px" y="0px"
	 viewBox="0 0 283.34 87" style="enable-background:new 0 0 283.34 87;" xml:space="preserve">
<style type="text/css">
	.st0{fill:#F8B81B;}
	.st1{fill:#2C2B29;}
	.st2{font-family:'TimesNewRomanPSMT';}
	.st3{font-size:34.2907px;}
</style>
<g>
	<rect x="53.4" y="53.23" class="st0" width="209.27" height="2.6"/>
	<rect x="77.89" y="59.23" width="160.29" height="3.01"/>
	<rect x="88.63" y="66.24" class="st0" width="138.83" height="2.6"/>
	<g>
		<path class="st1" d="M65.64,25.43c0,0-28.04,3.31-42.44,23.73c0,0-6.84,10.26,1.92,15.29s24.8,0,24.8,0S34,66.22,30.87,57.96
			c0,0-3.57-7.06,7.7-17.39C48.89,31.09,65.64,25.43,65.64,25.43z"/>
		<path class="st1" d="M43.15,59.81c0,0,11.86-2.62,13.01,5.7c1.14,8.23-14.75,15.82-21.31,18.46c0,0,27.53-6.7,27.22-20.03
			C61.86,54.45,43.15,59.81,43.15,59.81z"/>
		<path class="st0" d="M61.23,15.84L24.24,16.2l-2.99,32.64c0,0,8.69-18.24,40.55-25.23L61.23,15.84z M33.08,21.99
			c-0.95,0-1.72-0.77-1.72-1.72c0-0.95,0.77-1.72,1.72-1.72c0.95,0,1.72,0.77,1.72,1.72C34.8,21.22,34.03,21.99,33.08,21.99z
			 M53.87,21.99c-0.95,0-1.72-0.77-1.72-1.72c0-0.95,0.77-1.72,1.72-1.72s1.72,0.77,1.72,1.72C55.59,21.22,54.82,21.99,53.87,21.99z
			"/>
		<path class="st0" d="M34.1,14.26c0.1-5.09,4.27-9.2,9.38-9.2s9.28,4.11,9.38,9.2h2.02c-0.1-6.21-5.17-11.22-11.4-11.22
			s-11.31,5.02-11.4,11.22H34.1z"/>
	</g>
	<text transform="matrix(1.0541 0 0 1 62.2212 46.8988)"><tspan x="0" y="0" class="st0 st2 st3">Camera</tspan><tspan x="106.62" y="0" class="st2 st3">tosell</tspan></text>
</g>
</svg>
