<svg xmlns="http://www.w3.org/2000/svg" xmlns:xlink="http://www.w3.org/1999/xlink" width="500" zoomAndPan="magnify" viewBox="0 0 375 374.999991" height="500" preserveAspectRatio="xMidYMid meet" version="1.0"><defs><clipPath id="abe2264aa2"><path d="M 37.5 37.5 L 337.5 37.5 L 337.5 337.5 L 37.5 337.5 Z M 37.5 37.5 " clip-rule="nonzero"/></clipPath></defs><rect x="-37.5" width="450" fill="#ffffff" y="-37.499999" height="449.999989" fill-opacity="1"/><rect x="-37.5" width="450" fill="#ffffff" y="-37.499999" height="449.999989" fill-opacity="1"/><g clip-path="url(#abe2264aa2)"><path fill="#ffcc4d" d="M 337.5 187.5 C 337.5 270.339844 270.339844 337.5 187.5 337.5 C 104.660156 337.5 37.5 270.339844 37.5 187.5 C 37.5 104.660156 104.660156 37.5 187.5 37.5 C 270.339844 37.5 337.5 104.660156 337.5 187.5 " fill-opacity="1" fill-rule="nonzero"/></g><path fill="#292f33" d="M 47.832031 129.316406 C 49.832031 131.308594 59.816406 137.292969 61.808594 143.273438 C 63.808594 149.25 67.808594 183.140625 79.792969 193.117188 C 92.148438 203.382812 138.765625 199.566406 147.691406 195.117188 C 167.667969 185.160156 170.117188 157.359375 173.648438 143.273438 C 175.640625 135.300781 187.625 135.300781 187.625 135.300781 C 187.625 135.300781 199.609375 135.300781 201.609375 143.265625 C 205.140625 157.359375 207.609375 185.160156 227.566406 195.109375 C 236.5 199.566406 283.117188 203.390625 295.492188 193.125 C 307.457031 183.148438 311.449219 149.257812 313.449219 143.273438 C 315.433594 137.300781 325.433594 131.316406 327.425781 129.324219 C 329.433594 127.332031 329.433594 119.359375 327.425781 117.359375 C 323.433594 113.375 276.308594 109.824219 225.566406 115.367188 C 215.441406 116.476562 211.589844 119.351562 187.617188 119.351562 C 163.660156 119.351562 159.792969 116.464844 149.675781 115.367188 C 98.964844 109.816406 51.832031 113.367188 47.832031 117.351562 C 45.839844 119.339844 45.839844 127.324219 47.832031 129.316406 Z M 47.832031 129.316406 " fill-opacity="1" fill-rule="evenodd"/><path fill="#664500" d="M 265.292969 234.410156 C 263.808594 233.066406 261.589844 232.984375 260 234.167969 C 259.675781 234.410156 227.316406 258.332031 187.5 258.332031 C 147.785156 258.332031 115.316406 234.410156 115 234.167969 C 113.410156 232.984375 111.191406 233.082031 109.707031 234.410156 C 108.234375 235.742188 107.898438 237.941406 108.925781 239.640625 C 110 241.433594 135.734375 283.332031 187.5 283.332031 C 239.265625 283.332031 265.007812 241.433594 266.074219 239.640625 C 267.101562 237.933594 266.773438 235.742188 265.292969 234.410156 Z M 265.292969 234.410156 " fill-opacity="1" fill-rule="nonzero"/></svg>