<svg xmlns="http://www.w3.org/2000/svg" xmlns:xlink="http://www.w3.org/1999/xlink" width="500" zoomAndPan="magnify" viewBox="0 0 375 374.999991" height="500" preserveAspectRatio="xMidYMid meet" version="1.0"><defs><clipPath id="08515587ed"><path d="M 37.5 37.5 L 337.5 37.5 L 337.5 337.5 L 37.5 337.5 Z M 37.5 37.5 " clip-rule="nonzero"/></clipPath></defs><rect x="-37.5" width="450" fill="#ffffff" y="-37.499999" height="449.999989" fill-opacity="1"/><rect x="-37.5" width="450" fill="#ffffff" y="-37.499999" height="449.999989" fill-opacity="1"/><g clip-path="url(#08515587ed)"><path fill="#ffcc4d" d="M 337.5 187.5 C 337.5 189.953125 337.441406 192.410156 337.320312 194.859375 C 337.199219 197.3125 337.019531 199.757812 336.777344 202.203125 C 336.535156 204.644531 336.238281 207.082031 335.875 209.507812 C 335.515625 211.9375 335.097656 214.355469 334.617188 216.761719 C 334.140625 219.171875 333.601562 221.566406 333.003906 223.945312 C 332.40625 226.328125 331.753906 228.695312 331.039062 231.042969 C 330.328125 233.390625 329.558594 235.722656 328.730469 238.035156 C 327.90625 240.34375 327.019531 242.632812 326.082031 244.902344 C 325.140625 247.171875 324.148438 249.414062 323.097656 251.632812 C 322.046875 253.851562 320.945312 256.042969 319.789062 258.210938 C 318.632812 260.375 317.421875 262.507812 316.160156 264.617188 C 314.898438 266.722656 313.585938 268.792969 312.21875 270.835938 C 310.855469 272.875 309.445312 274.882812 307.980469 276.855469 C 306.519531 278.828125 305.007812 280.761719 303.453125 282.660156 C 301.894531 284.554688 300.292969 286.414062 298.644531 288.234375 C 296.992188 290.050781 295.300781 291.832031 293.566406 293.566406 C 291.832031 295.300781 290.050781 296.992188 288.234375 298.644531 C 286.414062 300.292969 284.554688 301.894531 282.660156 303.453125 C 280.761719 305.007812 278.828125 306.519531 276.855469 307.980469 C 274.882812 309.445312 272.875 310.855469 270.835938 312.21875 C 268.792969 313.585938 266.722656 314.898438 264.617188 316.160156 C 262.507812 317.421875 260.375 318.632812 258.210938 319.789062 C 256.042969 320.945312 253.851562 322.046875 251.632812 323.097656 C 249.414062 324.148438 247.171875 325.140625 244.902344 326.082031 C 242.632812 327.019531 240.34375 327.90625 238.035156 328.730469 C 235.722656 329.558594 233.390625 330.328125 231.042969 331.042969 C 228.695312 331.753906 226.328125 332.40625 223.945312 333.003906 C 221.566406 333.601562 219.171875 334.140625 216.761719 334.617188 C 214.355469 335.097656 211.9375 335.515625 209.507812 335.875 C 207.082031 336.238281 204.644531 336.535156 202.203125 336.777344 C 199.757812 337.019531 197.3125 337.199219 194.859375 337.320312 C 192.410156 337.441406 189.953125 337.5 187.5 337.5 C 185.046875 337.5 182.589844 337.441406 180.140625 337.320312 C 177.6875 337.199219 175.242188 337.019531 172.796875 336.777344 C 170.355469 336.535156 167.917969 336.238281 165.492188 335.875 C 163.0625 335.515625 160.644531 335.097656 158.238281 334.617188 C 155.828125 334.140625 153.433594 333.601562 151.054688 333.003906 C 148.671875 332.40625 146.304688 331.753906 143.957031 331.039062 C 141.609375 330.328125 139.277344 329.558594 136.964844 328.730469 C 134.65625 327.90625 132.367188 327.019531 130.097656 326.082031 C 127.828125 325.140625 125.585938 324.148438 123.367188 323.097656 C 121.148438 322.046875 118.957031 320.945312 116.789062 319.789062 C 114.625 318.632812 112.488281 317.421875 110.382812 316.160156 C 108.277344 314.898438 106.207031 313.585938 104.164062 312.21875 C 102.125 310.855469 100.117188 309.445312 98.144531 307.980469 C 96.171875 306.519531 94.238281 305.007812 92.339844 303.453125 C 90.445312 301.894531 88.585938 300.292969 86.765625 298.644531 C 84.945312 296.992188 83.167969 295.300781 81.433594 293.566406 C 79.699219 291.832031 78.007812 290.050781 76.355469 288.234375 C 74.707031 286.414062 73.105469 284.554688 71.546875 282.660156 C 69.992188 280.761719 68.480469 278.828125 67.019531 276.855469 C 65.554688 274.882812 64.144531 272.875 62.78125 270.835938 C 61.414062 268.792969 60.101562 266.722656 58.839844 264.617188 C 57.578125 262.507812 56.367188 260.375 55.210938 258.210938 C 54.054688 256.042969 52.953125 253.851562 51.902344 251.632812 C 50.851562 249.414062 49.859375 247.171875 48.917969 244.902344 C 47.980469 242.632812 47.09375 240.34375 46.269531 238.035156 C 45.441406 235.722656 44.671875 233.390625 43.957031 231.042969 C 43.246094 228.695312 42.589844 226.328125 41.996094 223.945312 C 41.398438 221.566406 40.859375 219.171875 40.382812 216.761719 C 39.902344 214.355469 39.484375 211.9375 39.125 209.507812 C 38.761719 207.082031 38.464844 204.644531 38.222656 202.203125 C 37.980469 199.757812 37.800781 197.3125 37.679688 194.859375 C 37.558594 192.410156 37.5 189.953125 37.5 187.5 C 37.5 185.046875 37.558594 182.589844 37.679688 180.140625 C 37.800781 177.6875 37.980469 175.242188 38.222656 172.796875 C 38.464844 170.355469 38.761719 167.917969 39.125 165.492188 C 39.484375 163.0625 39.902344 160.644531 40.382812 158.238281 C 40.859375 155.828125 41.398438 153.433594 41.996094 151.054688 C 42.589844 148.671875 43.246094 146.304688 43.957031 143.957031 C 44.671875 141.609375 45.441406 139.277344 46.269531 136.964844 C 47.09375 134.65625 47.980469 132.367188 48.917969 130.097656 C 49.859375 127.828125 50.851562 125.585938 51.902344 123.367188 C 52.953125 121.148438 54.054688 118.957031 55.210938 116.789062 C 56.367188 114.625 57.578125 112.488281 58.839844 110.382812 C 60.101562 108.277344 61.414062 106.207031 62.78125 104.164062 C 64.144531 102.125 65.554688 100.117188 67.019531 98.144531 C 68.480469 96.171875 69.992188 94.238281 71.546875 92.339844 C 73.105469 90.445312 74.707031 88.585938 76.355469 86.765625 C 78.007812 84.945312 79.699219 83.167969 81.433594 81.433594 C 83.167969 79.699219 84.945312 78.007812 86.765625 76.355469 C 88.585938 74.707031 90.445312 73.105469 92.339844 71.546875 C 94.238281 69.992188 96.171875 68.480469 98.144531 67.019531 C 100.117188 65.554688 102.125 64.144531 104.164062 62.78125 C 106.207031 61.414062 108.277344 60.101562 110.382812 58.839844 C 112.488281 57.578125 114.625 56.367188 116.789062 55.210938 C 118.957031 54.054688 121.148438 52.953125 123.367188 51.902344 C 125.585938 50.851562 127.828125 49.859375 130.097656 48.917969 C 132.367188 47.980469 134.65625 47.09375 136.964844 46.269531 C 139.277344 45.441406 141.609375 44.671875 143.957031 43.957031 C 146.304688 43.246094 148.671875 42.589844 151.054688 41.996094 C 153.433594 41.398438 155.828125 40.859375 158.238281 40.382812 C 160.644531 39.902344 163.0625 39.484375 165.492188 39.125 C 167.917969 38.761719 170.355469 38.464844 172.796875 38.222656 C 175.242188 37.980469 177.6875 37.800781 180.140625 37.679688 C 182.589844 37.558594 185.046875 37.5 187.5 37.5 C 189.953125 37.5 192.410156 37.558594 194.859375 37.679688 C 197.3125 37.800781 199.757812 37.980469 202.203125 38.222656 C 204.644531 38.464844 207.082031 38.761719 209.507812 39.125 C 211.9375 39.484375 214.355469 39.902344 216.761719 40.382812 C 219.171875 40.859375 221.566406 41.398438 223.945312 41.996094 C 226.328125 42.589844 228.695312 43.246094 231.042969 43.957031 C 233.390625 44.671875 235.722656 45.441406 238.035156 46.269531 C 240.34375 47.09375 242.632812 47.980469 244.902344 48.917969 C 247.171875 49.859375 249.414062 50.851562 251.632812 51.902344 C 253.851562 52.953125 256.042969 54.054688 258.210938 55.210938 C 260.375 56.367188 262.507812 57.578125 264.617188 58.839844 C 266.722656 60.101562 268.792969 61.414062 270.835938 62.78125 C 272.875 64.144531 274.882812 65.554688 276.855469 67.019531 C 278.828125 68.480469 280.761719 69.992188 282.660156 71.546875 C 284.554688 73.105469 286.414062 74.707031 288.234375 76.355469 C 290.050781 78.007812 291.832031 79.699219 293.566406 81.433594 C 295.300781 83.167969 296.992188 84.945312 298.644531 86.765625 C 300.292969 88.585938 301.894531 90.445312 303.453125 92.339844 C 305.007812 94.238281 306.519531 96.171875 307.980469 98.144531 C 309.445312 100.117188 310.855469 102.125 312.21875 104.164062 C 313.585938 106.207031 314.898438 108.277344 316.160156 110.382812 C 317.421875 112.488281 318.632812 114.625 319.789062 116.789062 C 320.945312 118.957031 322.046875 121.148438 323.097656 123.367188 C 324.148438 125.585938 325.140625 127.828125 326.082031 130.097656 C 327.019531 132.367188 327.90625 134.65625 328.730469 136.964844 C 329.558594 139.277344 330.328125 141.609375 331.042969 143.957031 C 331.753906 146.304688 332.40625 148.671875 333.003906 151.054688 C 333.601562 153.433594 334.140625 155.828125 334.617188 158.238281 C 335.097656 160.644531 335.515625 163.0625 335.875 165.492188 C 336.238281 167.917969 336.535156 170.355469 336.777344 172.796875 C 337.019531 175.242188 337.199219 177.6875 337.320312 180.140625 C 337.441406 182.589844 337.5 185.046875 337.5 187.5 Z M 337.5 187.5 " fill-opacity="1" fill-rule="nonzero"/></g><path fill="#664500" d="M 125.125 234.339844 C 125.5 235.832031 134.859375 270.832031 187.5 270.832031 C 240.148438 270.832031 249.5 235.832031 249.875 234.339844 C 250.332031 232.535156 249.515625 230.660156 247.898438 229.726562 C 246.273438 228.800781 244.242188 229.074219 242.898438 230.367188 C 242.742188 230.523438 226.617188 245.832031 187.5 245.832031 C 148.382812 245.832031 132.25 230.523438 132.101562 230.375 C 131.300781 229.582031 130.234375 229.167969 129.167969 229.167969 C 128.464844 229.167969 127.757812 229.339844 127.117188 229.699219 C 125.484375 230.632812 124.667969 232.523438 125.125 234.339844 Z M 125.125 234.339844 " fill-opacity="1" fill-rule="nonzero"/><path fill="#664500" d="M 158.332031 150 C 158.332031 150.957031 158.300781 151.90625 158.234375 152.859375 C 158.167969 153.808594 158.066406 154.753906 157.933594 155.691406 C 157.800781 156.628906 157.632812 157.550781 157.4375 158.464844 C 157.238281 159.378906 157.007812 160.277344 156.746094 161.160156 C 156.488281 162.042969 156.195312 162.90625 155.875 163.75 C 155.550781 164.589844 155.203125 165.410156 154.820312 166.203125 C 154.441406 167 154.039062 167.765625 153.605469 168.503906 C 153.171875 169.242188 152.714844 169.949219 152.230469 170.625 C 151.75 171.300781 151.242188 171.941406 150.714844 172.546875 C 150.1875 173.152344 149.640625 173.71875 149.074219 174.25 C 148.507812 174.78125 147.921875 175.273438 147.320312 175.722656 C 146.71875 176.171875 146.101562 176.582031 145.472656 176.945312 C 144.84375 177.3125 144.199219 177.632812 143.546875 177.910156 C 142.894531 178.1875 142.234375 178.417969 141.5625 178.605469 C 140.894531 178.792969 140.222656 178.933594 139.542969 179.027344 C 138.863281 179.121094 138.183594 179.167969 137.5 179.167969 C 136.816406 179.167969 136.136719 179.121094 135.457031 179.027344 C 134.777344 178.933594 134.105469 178.792969 133.4375 178.605469 C 132.765625 178.417969 132.105469 178.1875 131.453125 177.910156 C 130.800781 177.632812 130.15625 177.3125 129.527344 176.945312 C 128.898438 176.582031 128.28125 176.171875 127.679688 175.722656 C 127.078125 175.273438 126.492188 174.78125 125.925781 174.25 C 125.359375 173.71875 124.8125 173.152344 124.285156 172.546875 C 123.757812 171.941406 123.25 171.300781 122.769531 170.625 C 122.285156 169.949219 121.828125 169.242188 121.394531 168.503906 C 120.960938 167.765625 120.558594 167 120.175781 166.203125 C 119.796875 165.410156 119.449219 164.589844 119.125 163.75 C 118.804688 162.90625 118.511719 162.042969 118.253906 161.160156 C 117.992188 160.277344 117.761719 159.378906 117.5625 158.464844 C 117.367188 157.550781 117.199219 156.628906 117.066406 155.691406 C 116.933594 154.753906 116.832031 153.808594 116.765625 152.859375 C 116.699219 151.90625 116.667969 150.957031 116.667969 150 C 116.667969 149.042969 116.699219 148.09375 116.765625 147.140625 C 116.832031 146.191406 116.933594 145.246094 117.066406 144.308594 C 117.199219 143.371094 117.367188 142.449219 117.5625 141.535156 C 117.761719 140.621094 117.992188 139.722656 118.253906 138.839844 C 118.511719 137.957031 118.804688 137.09375 119.125 136.25 C 119.449219 135.410156 119.796875 134.589844 120.175781 133.796875 C 120.558594 133 120.960938 132.234375 121.394531 131.496094 C 121.828125 130.757812 122.285156 130.050781 122.769531 129.375 C 123.25 128.699219 123.757812 128.058594 124.285156 127.453125 C 124.8125 126.847656 125.359375 126.28125 125.925781 125.75 C 126.492188 125.21875 127.078125 124.726562 127.679688 124.277344 C 128.28125 123.828125 128.898438 123.417969 129.527344 123.054688 C 130.15625 122.6875 130.800781 122.367188 131.453125 122.089844 C 132.105469 121.8125 132.765625 121.582031 133.4375 121.394531 C 134.105469 121.207031 134.777344 121.066406 135.457031 120.972656 C 136.136719 120.878906 136.816406 120.832031 137.5 120.832031 C 138.183594 120.832031 138.863281 120.878906 139.542969 120.972656 C 140.222656 121.066406 140.894531 121.207031 141.5625 121.394531 C 142.234375 121.582031 142.894531 121.8125 143.546875 122.089844 C 144.199219 122.367188 144.84375 122.6875 145.472656 123.054688 C 146.101562 123.417969 146.71875 123.828125 147.320312 124.277344 C 147.921875 124.726562 148.507812 125.21875 149.074219 125.75 C 149.640625 126.28125 150.1875 126.847656 150.714844 127.453125 C 151.242188 128.058594 151.75 128.699219 152.230469 129.375 C 152.714844 130.050781 153.171875 130.757812 153.605469 131.496094 C 154.039062 132.234375 154.441406 133 154.820312 133.796875 C 155.203125 134.589844 155.550781 135.410156 155.875 136.25 C 156.195312 137.09375 156.488281 137.957031 156.746094 138.839844 C 157.007812 139.722656 157.238281 140.621094 157.4375 141.535156 C 157.632812 142.449219 157.800781 143.371094 157.933594 144.308594 C 158.066406 145.246094 158.167969 146.191406 158.234375 147.140625 C 158.300781 148.09375 158.332031 149.042969 158.332031 150 Z M 158.332031 150 " fill-opacity="1" fill-rule="nonzero"/><path fill="#664500" d="M 258.332031 150 C 258.332031 150.957031 258.300781 151.90625 258.234375 152.859375 C 258.167969 153.808594 258.066406 154.753906 257.933594 155.691406 C 257.800781 156.628906 257.632812 157.550781 257.4375 158.464844 C 257.238281 159.378906 257.007812 160.277344 256.746094 161.160156 C 256.484375 162.042969 256.195312 162.90625 255.875 163.75 C 255.550781 164.589844 255.203125 165.410156 254.820312 166.203125 C 254.441406 167 254.039062 167.765625 253.605469 168.503906 C 253.171875 169.242188 252.714844 169.949219 252.230469 170.625 C 251.75 171.300781 251.242188 171.941406 250.714844 172.546875 C 250.1875 173.152344 249.640625 173.71875 249.074219 174.25 C 248.507812 174.78125 247.921875 175.273438 247.320312 175.722656 C 246.71875 176.171875 246.101562 176.582031 245.472656 176.945312 C 244.84375 177.3125 244.199219 177.632812 243.546875 177.910156 C 242.894531 178.1875 242.234375 178.417969 241.5625 178.605469 C 240.894531 178.792969 240.222656 178.933594 239.542969 179.027344 C 238.863281 179.121094 238.183594 179.167969 237.5 179.167969 C 236.816406 179.167969 236.136719 179.121094 235.457031 179.027344 C 234.777344 178.933594 234.105469 178.792969 233.4375 178.605469 C 232.765625 178.417969 232.105469 178.1875 231.453125 177.910156 C 230.800781 177.632812 230.15625 177.3125 229.527344 176.945312 C 228.898438 176.582031 228.28125 176.171875 227.679688 175.722656 C 227.078125 175.273438 226.492188 174.78125 225.925781 174.25 C 225.359375 173.71875 224.8125 173.152344 224.285156 172.546875 C 223.757812 171.941406 223.25 171.300781 222.769531 170.625 C 222.285156 169.949219 221.828125 169.242188 221.394531 168.503906 C 220.960938 167.765625 220.558594 167 220.175781 166.203125 C 219.796875 165.410156 219.449219 164.589844 219.125 163.75 C 218.804688 162.90625 218.511719 162.042969 218.253906 161.160156 C 217.992188 160.277344 217.761719 159.378906 217.5625 158.464844 C 217.367188 157.550781 217.199219 156.628906 217.066406 155.691406 C 216.933594 154.753906 216.832031 153.808594 216.765625 152.859375 C 216.699219 151.90625 216.667969 150.957031 216.667969 150 C 216.667969 149.042969 216.699219 148.09375 216.765625 147.140625 C 216.832031 146.191406 216.933594 145.246094 217.066406 144.308594 C 217.199219 143.371094 217.367188 142.449219 217.5625 141.535156 C 217.761719 140.621094 217.992188 139.722656 218.253906 138.839844 C 218.511719 137.957031 218.804688 137.09375 219.125 136.25 C 219.449219 135.410156 219.796875 134.589844 220.175781 133.796875 C 220.558594 133 220.960938 132.234375 221.394531 131.496094 C 221.828125 130.757812 222.285156 130.050781 222.769531 129.375 C 223.25 128.699219 223.757812 128.058594 224.285156 127.453125 C 224.8125 126.847656 225.359375 126.28125 225.925781 125.75 C 226.492188 125.21875 227.078125 124.726562 227.679688 124.277344 C 228.28125 123.828125 228.898438 123.417969 229.527344 123.054688 C 230.15625 122.6875 230.800781 122.367188 231.453125 122.089844 C 232.105469 121.8125 232.765625 121.582031 233.4375 121.394531 C 234.105469 121.207031 234.777344 121.066406 235.457031 120.972656 C 236.136719 120.878906 236.816406 120.832031 237.5 120.832031 C 238.183594 120.832031 238.863281 120.878906 239.542969 120.972656 C 240.222656 121.066406 240.894531 121.207031 241.5625 121.394531 C 242.234375 121.582031 242.894531 121.8125 243.546875 122.089844 C 244.199219 122.367188 244.84375 122.6875 245.472656 123.054688 C 246.101562 123.417969 246.71875 123.828125 247.320312 124.277344 C 247.921875 124.726562 248.507812 125.21875 249.074219 125.75 C 249.640625 126.28125 250.1875 126.847656 250.714844 127.453125 C 251.242188 128.058594 251.75 128.699219 252.230469 129.375 C 252.714844 130.050781 253.171875 130.757812 253.605469 131.496094 C 254.039062 132.234375 254.441406 133 254.820312 133.796875 C 255.203125 134.589844 255.550781 135.410156 255.875 136.25 C 256.195312 137.09375 256.488281 137.957031 256.746094 138.839844 C 257.007812 139.722656 257.238281 140.621094 257.4375 141.535156 C 257.632812 142.449219 257.800781 143.371094 257.933594 144.308594 C 258.066406 145.246094 258.167969 146.191406 258.234375 147.140625 C 258.300781 148.09375 258.332031 149.042969 258.332031 150 Z M 258.332031 150 " fill-opacity="1" fill-rule="nonzero"/></svg>