<svg width="288" height="288" viewBox="0 0 288 288" fill="none" xmlns="http://www.w3.org/2000/svg">
<g clip-path="url(#clip0_1_5)">
<path d="M84.6 84.6C82.3503 86.8503 81.0865 89.902 81.0865 93.084C81.0865 96.266 82.3503 99.3177 84.6 101.568L127.032 144L84.6 186.432C83.4539 187.539 82.5397 188.863 81.9108 190.327C81.2819 191.791 80.9508 193.366 80.937 194.959C80.9231 196.553 81.2267 198.133 81.8301 199.607C82.4335 201.082 83.3245 202.422 84.4512 203.549C85.578 204.675 86.9178 205.566 88.3925 206.17C89.8673 206.773 91.4474 207.077 93.0408 207.063C94.6341 207.049 96.2088 206.718 97.6728 206.089C99.1369 205.46 100.461 204.546 101.568 203.4L144 160.968L186.432 203.4C188.695 205.586 191.726 206.795 194.873 206.768C198.019 206.741 201.029 205.479 203.254 203.254C205.479 201.029 206.741 198.019 206.768 194.873C206.795 191.726 205.586 188.695 203.4 186.432L160.968 144L203.4 101.568C205.586 99.3048 206.795 96.2735 206.768 93.1272C206.741 89.9808 205.479 86.9711 203.254 84.7462C201.029 82.5213 198.019 81.2592 194.873 81.2319C191.726 81.2046 188.695 82.4141 186.432 84.6L144 127.032L101.568 84.6C99.3176 82.3503 96.266 81.0866 93.084 81.0866C89.902 81.0866 86.8503 82.3503 84.6 84.6Z" fill="#054089"/>
</g>
<defs>
<clipPath id="clip0_1_5">
<rect width="288" height="288" fill="white"/>
</clipPath>
</defs>
</svg>
