<svg width="19" height="19" viewBox="0 0 19 19" fill="none" xmlns="http://www.w3.org/2000/svg">
<path d="M17.9631 1.68802C18.0026 1.59694 18.0137 1.49609 17.9952 1.39858C17.9766 1.30107 17.9291 1.21139 17.8589 1.1412C17.7887 1.07101 17.6991 1.02354 17.6015 1.00496C17.504 0.986384 17.4032 0.997555 17.3121 1.03702L1.3121 7.53702C1.21481 7.57666 1.13248 7.64593 1.07679 7.73501C1.0211 7.82408 0.994881 7.92844 1.00185 8.03326C1.00883 8.13808 1.04864 8.23804 1.11564 8.31895C1.18264 8.39987 1.27342 8.45762 1.3751 8.48402L7.4991 10.064C7.84511 10.153 8.16098 10.333 8.41387 10.5853C8.66675 10.8377 8.84742 11.1532 8.9371 11.499L10.5161 17.625C10.5425 17.7267 10.6003 17.8175 10.6812 17.8845C10.7621 17.9515 10.862 17.9913 10.9669 17.9983C11.0717 18.0052 11.176 17.979 11.2651 17.9233C11.3542 17.8676 11.4235 17.7853 11.4631 17.688L17.9631 1.68802Z" stroke="black" stroke-width="1.5" stroke-linecap="round" stroke-linejoin="round"/>
</svg>
