<svg width="189" height="92" viewBox="0 0 189 92" fill="none" xmlns="http://www.w3.org/2000/svg">
<g clip-path="url(#clip0_0_1)">
<path fill-rule="evenodd" clip-rule="evenodd" d="M8.37391 78.3228C12.9796 78.3228 16.7478 74.5299 16.7478 69.9007V24.5031C16.7478 19.868 12.9796 16.0781 8.37391 16.0781C3.76535 16.0781 0 19.8709 0 24.5031V69.9007C0 74.5329 3.76535 78.3228 8.37391 78.3228Z" fill="#ED1B25"/>
<path fill-rule="evenodd" clip-rule="evenodd" d="M25.1244 92C29.733 92 33.5012 88.213 33.5012 83.5779V12.8701C33.5012 8.23496 29.733 4.44501 25.1244 4.44501C20.5187 4.44501 16.7505 8.23789 16.7505 12.8701V83.5749C16.7505 88.21 20.5187 91.9971 25.1244 91.9971V92Z" fill="#FABA1C"/>
<path fill-rule="evenodd" clip-rule="evenodd" d="M41.8754 86.1864C46.4839 86.1864 50.2493 82.3965 50.2493 77.7614V8.42505C50.2493 3.78703 46.481 0 41.8754 0C37.2668 0 33.5015 3.78703 33.5015 8.42505V77.7614C33.5015 82.3965 37.2697 86.1864 41.8754 86.1864Z" fill="#068ED4"/>
<path fill-rule="evenodd" clip-rule="evenodd" d="M58.6288 81.7414C63.2373 81.7414 67.0027 77.9485 67.0027 73.3163V19.0258C67.0027 14.3907 63.2373 10.6037 58.6288 10.6037C54.0202 10.6037 50.252 14.3907 50.252 19.0258V73.3134C50.252 77.9485 54.0202 81.7385 58.6288 81.7385V81.7414Z" fill="#009E4F"/>
<path fill-rule="evenodd" clip-rule="evenodd" d="M16.5354 21.3068C-8.659 38.3177 3.43374 77.7555 33.5217 77.7555C63.6096 77.7555 75.7169 38.347 50.505 21.3068C40.3197 14.42 26.7237 14.4258 16.5354 21.3068Z" fill="#FEFEFE"/>
<path fill-rule="evenodd" clip-rule="evenodd" d="M20.6819 27.5649C1.63708 40.4262 10.7786 70.2341 33.5219 70.2341C56.2652 70.2341 65.4154 40.4467 46.3619 27.5678C38.6596 22.3625 28.3813 22.3654 20.679 27.5678L20.6819 27.5649Z" fill="#D5D5D7"/>
<path fill-rule="evenodd" clip-rule="evenodd" d="M23.2783 31.4835C8.08316 41.7451 15.3754 65.5259 33.5218 65.5259C51.6682 65.5259 58.9692 41.7597 43.7653 31.4835C37.6186 27.3339 29.4221 27.3339 23.2783 31.4835Z" fill="#5F5F5F"/>
<path fill-rule="evenodd" clip-rule="evenodd" d="M24.4851 33.3025C11.0781 42.3533 17.5127 63.3414 33.522 63.3414C49.5312 63.3414 55.9745 42.3709 42.5617 33.3025C37.139 29.6412 29.9049 29.6412 24.4851 33.3025Z" fill="#434443"/>
<path fill-rule="evenodd" clip-rule="evenodd" d="M28.5063 39.3793C21.0715 44.4033 24.6392 56.0422 33.5219 56.0422C42.4047 56.0422 45.9752 44.4062 38.5346 39.3793C35.5282 37.3439 31.5157 37.3498 28.5063 39.3793Z" fill="#22201E"/>
<path fill-rule="evenodd" clip-rule="evenodd" d="M27.8142 43.8886C24.2989 41.514 25.9853 36.0104 30.1839 36.0104C34.3825 36.0104 36.0689 41.5082 32.5536 43.8886C31.1318 44.8478 29.236 44.8449 27.8142 43.8886Z" fill="#BABCBE"/>
<path fill-rule="evenodd" clip-rule="evenodd" d="M37.5692 55.934C35.8421 54.7643 36.6707 52.0563 38.7351 52.0563C40.7995 52.0563 41.6311 54.7613 39.9011 55.934C39.2032 56.4078 38.267 56.4078 37.5692 55.934Z" fill="#FEFEFE"/>
</g>
<path d="M90.428 55.28C86.228 55.28 83.036 52.536 83.036 47.86V47.636C83.036 42.988 86.34 40.048 90.428 40.048C93.676 40.048 96.728 41.504 97.12 45.536H93.844C93.564 43.576 92.276 42.764 90.484 42.764C88.16 42.764 86.508 44.556 86.508 47.58V47.804C86.508 50.996 88.076 52.676 90.568 52.676C92.36 52.676 93.9 51.612 94.096 49.54H97.204C96.952 52.9 94.404 55.28 90.428 55.28ZM103.957 55.28C101.269 55.28 99.0575 53.992 99.0575 50.94C99.0575 47.524 102.361 46.292 106.561 46.292H108.381V45.536C108.381 43.576 107.709 42.596 105.721 42.596C103.957 42.596 103.089 43.436 102.921 44.892H99.6455C99.9255 41.476 102.641 40.048 105.917 40.048C109.193 40.048 111.769 41.392 111.769 45.396V55H108.437V53.208C107.485 54.468 106.197 55.28 103.957 55.28ZM104.769 52.844C106.841 52.844 108.381 51.752 108.381 49.876V48.42H106.645C104.069 48.42 102.417 49.008 102.417 50.8C102.417 52.032 103.089 52.844 104.769 52.844ZM115.653 55V40.356H119.041V42.596C119.741 41.224 121.337 40.048 123.493 40.048C125.397 40.048 126.909 40.86 127.637 42.68C128.757 40.86 130.773 40.048 132.593 40.048C135.281 40.048 137.465 41.7 137.465 45.732V55H134.077V45.956C134.077 43.8 133.153 42.876 131.473 42.876C129.793 42.876 128.253 43.996 128.253 46.236V55H124.865V45.956C124.865 43.8 123.913 42.876 122.261 42.876C120.581 42.876 119.041 43.996 119.041 46.236V55H115.653ZM147.796 55.28C143.484 55.28 140.376 52.452 140.376 47.832V47.608C140.376 43.072 143.484 40.048 147.656 40.048C151.296 40.048 154.572 42.204 154.572 47.44V48.42H143.848C143.96 51.192 145.36 52.76 147.88 52.76C149.924 52.76 150.988 51.948 151.24 50.52H154.516C154.04 53.6 151.548 55.28 147.796 55.28ZM143.904 46.152H151.212C151.044 43.632 149.756 42.512 147.656 42.512C145.612 42.512 144.24 43.884 143.904 46.152ZM157.598 55V40.356H160.986V43.1C161.91 41.252 163.282 40.16 165.746 40.132V43.296C162.778 43.324 160.986 44.276 160.986 47.384V55H157.598ZM172.29 55.28C169.602 55.28 167.39 53.992 167.39 50.94C167.39 47.524 170.694 46.292 174.894 46.292H176.714V45.536C176.714 43.576 176.042 42.596 174.054 42.596C172.29 42.596 171.422 43.436 171.254 44.892H167.978C168.258 41.476 170.974 40.048 174.25 40.048C177.526 40.048 180.102 41.392 180.102 45.396V55H176.77V53.208C175.818 54.468 174.53 55.28 172.29 55.28ZM173.102 52.844C175.174 52.844 176.714 51.752 176.714 49.876V48.42H174.978C172.402 48.42 170.75 49.008 170.75 50.8C170.75 52.032 171.422 52.844 173.102 52.844ZM186.001 55.196C184.769 55.196 183.789 54.244 183.789 53.012C183.789 51.78 184.769 50.8 186.001 50.8C187.261 50.8 188.241 51.78 188.241 53.012C188.241 54.244 187.261 55.196 186.001 55.196Z" fill="black"/>
<defs>
<clipPath id="clip0_0_1">
<rect width="67" height="92" fill="white"/>
</clipPath>
</defs>
</svg>
