<svg width="61" height="50" viewBox="0 0 61 50" fill="none" xmlns="http://www.w3.org/2000/svg">
<path d="M34.542 50V36.1641C34.542 28.9122 35.4008 22.9644 37.1183 18.3206C38.8995 13.6768 41.8893 9.73282 46.0878 6.48855C50.2863 3.24427 55.0573 1.08142 60.4008 0V11.0687C56.6476 13.2316 54.5165 16.126 54.0076 19.7519H60.4008V50H34.542ZM0 50V36.1641C0 28.9122 0.858779 22.9644 2.57634 18.3206C4.35751 13.6768 7.34733 9.73282 11.5458 6.48855C15.8079 3.24427 20.5789 1.08142 25.8588 0V11.0687C22.1056 13.2316 19.9746 16.126 19.4656 19.7519H25.8588V50H0Z" fill="#054089"/>
</svg>
